HIERARCHY
ROOT newVegas:Hips
{
	OFFSET 0.000000 96.479958 0.000000
	CHANNELS 6 Xposition Yposition Zposition Xrotation Yrotation Zrotation
	JOINT newVegas:Pelvis
	{
		OFFSET 0.000000 0.000000 0.000000
		CHANNELS 3 Xrotation Yrotation Zrotation
		JOINT newVegas:LeftUpLeg
		{
			OFFSET 18.735201 -5.666702 -4.541200
			CHANNELS 3 Xrotation Yrotation Zrotation
			JOINT newVegas:LeftLeg
			{
				OFFSET -0.021200 -31.938179 0.493100
				CHANNELS 3 Xrotation Yrotation Zrotation
				JOINT newVegas:LeftFoot
				{
					OFFSET 0.021200 -31.938179 -4.336299
					CHANNELS 3 Xrotation Yrotation Zrotation
					JOINT newVegas:LeftToeBase
					{
						OFFSET 0.943001 -26.722000 15.023500
						CHANNELS 3 Xrotation Yrotation Zrotation
						End Site
						{
							OFFSET 0.000000 30.670183 0.000000
						}
					}
				}
				JOINT newVegas:Left_PantLeg
				{
					OFFSET 0.663870 -9.044666 -1.108900
					CHANNELS 3 Xrotation Yrotation Zrotation
					End Site
					{
						OFFSET 1.415995 20.635357 0.000000
					}
				}
			}
		}
		JOINT newVegas:RightUpLeg
		{
			OFFSET -18.735201 -5.666702 -4.541200
			CHANNELS 3 Xrotation Yrotation Zrotation
			JOINT newVegas:RightLeg
			{
				OFFSET 0.018946 -31.938133 0.493100
				CHANNELS 3 Xrotation Yrotation Zrotation
				JOINT newVegas:RightFoot
				{
					OFFSET -0.018946 -31.938126 -4.336299
					CHANNELS 3 Xrotation Yrotation Zrotation
					JOINT newVegas:RightToeBase
					{
						OFFSET -0.943001 -26.722004 15.023500
						CHANNELS 3 Xrotation Yrotation Zrotation
						End Site
						{
							OFFSET 0.000000 30.670187 0.000000
						}
					}
				}
				JOINT newVegas:Right_PantLeg
				{
					OFFSET -0.661674 -9.044716 -1.108900
					CHANNELS 3 Xrotation Yrotation Zrotation
					End Site
					{
						OFFSET -1.415958 20.635269 0.000000
					}
				}
			}
		}
	}
	JOINT newVegas:Spine
	{
		OFFSET 0.000000 10.199997 -0.299500
		CHANNELS 3 Xrotation Yrotation Zrotation
		JOINT newVegas:Spine1
		{
			OFFSET 0.000000 11.900002 -1.516600
			CHANNELS 3 Xrotation Yrotation Zrotation
			JOINT newVegas:Spine2
			{
				OFFSET 0.000000 13.600006 -2.842500
				CHANNELS 3 Xrotation Yrotation Zrotation
				JOINT newVegas:Neck
				{
					OFFSET 0.000000 9.624100 -2.890100
					CHANNELS 3 Xrotation Yrotation Zrotation
					JOINT newVegas:Head
					{
						OFFSET 0.000000 14.068802 -1.351900
						CHANNELS 3 Xrotation Yrotation Zrotation
						JOINT newVegas:Hair_Back
						{
							OFFSET 0.000000 3.231903 -17.524799
							CHANNELS 3 Xrotation Yrotation Zrotation
							End Site
							{
								OFFSET 0.000000 19.849884 0.000000
							}
						}
						JOINT newVegas:Hair_Front
						{
							OFFSET 0.000000 31.260406 4.573800
							CHANNELS 3 Xrotation Yrotation Zrotation
							JOINT newVegas:Hair_Front1
							{
								OFFSET 0.000000 2.284103 11.993300
								CHANNELS 3 Xrotation Yrotation Zrotation
								JOINT newVegas:Hair_Front2
								{
									OFFSET 0.000000 2.284103 11.993300
									CHANNELS 3 Xrotation Yrotation Zrotation
									End Site
									{
										OFFSET 0.000000 12.208862 0.000000
									}
								}
							}
						}
						JOINT newVegas:Jowel
						{
							OFFSET 0.000000 -7.458206 6.864100
							CHANNELS 3 Xrotation Yrotation Zrotation
							End Site
							{
								OFFSET 0.000000 19.849884 0.000000
							}
						}
					}
				}
				JOINT newVegas:LeftShoulder
				{
					OFFSET 15.263000 10.923401 -0.547700
					CHANNELS 3 Xrotation Yrotation Zrotation
					JOINT newVegas:LeftArm
					{
						OFFSET 25.438599 -2.830597 -13.032500
						CHANNELS 3 Xrotation Yrotation Zrotation
						JOINT newVegas:LeftForeArm
						{
							OFFSET 29.960503 0.000000 0.000000
							CHANNELS 3 Xrotation Yrotation Zrotation
							JOINT newVegas:LeftHand
							{
								OFFSET 27.849251 0.000000 0.000000
								CHANNELS 3 Xrotation Yrotation Zrotation
								JOINT newVegas:LeftHandThumb1
								{
									OFFSET 4.487587 -3.305161 6.305391
									CHANNELS 3 Xrotation Yrotation Zrotation
									JOINT newVegas:LeftHandThumb2
									{
										OFFSET 5.480453 -3.164139 3.164143
										CHANNELS 3 Xrotation Yrotation Zrotation
										JOINT newVegas:LeftHandThumb3
										{
											OFFSET 5.159721 -2.978973 2.978967
											CHANNELS 3 Xrotation Yrotation Zrotation
											End Site
											{
												OFFSET 2.494507 5.926697 1.738678
											}
										}
									}
								}
								JOINT newVegas:LeftHandIndex1
								{
									OFFSET 18.578728 -0.527832 5.208049
									CHANNELS 3 Xrotation Yrotation Zrotation
									JOINT newVegas:LeftHandIndex2
									{
										OFFSET 3.192009 0.000000 0.000000
										CHANNELS 3 Xrotation Yrotation Zrotation
										JOINT newVegas:LeftHandIndex3
										{
											OFFSET 3.835129 0.000000 0.000000
											CHANNELS 3 Xrotation Yrotation Zrotation
											End Site
											{
												OFFSET -0.034599 3.816971 0.371180
											}
										}
									}
								}
								JOINT newVegas:LeftHandMiddle1
								{
									OFFSET 18.476105 0.000000 0.000000
									CHANNELS 3 Xrotation Yrotation Zrotation
									JOINT newVegas:LeftHandMiddle2
									{
										OFFSET 3.324875 0.000000 0.000000
										CHANNELS 3 Xrotation Yrotation Zrotation
										JOINT newVegas:LeftHandMiddle3
										{
											OFFSET 4.596550 0.000000 0.000000
											CHANNELS 3 Xrotation Yrotation Zrotation
											End Site
											{
												OFFSET 0.057701 4.578827 0.399218
											}
										}
									}
								}
								JOINT newVegas:LeftHandRing1
								{
									OFFSET 17.732719 0.121887 -4.201567
									CHANNELS 3 Xrotation Yrotation Zrotation
									JOINT newVegas:LeftHandRing2
									{
										OFFSET 2.733170 0.000000 0.000000
										CHANNELS 3 Xrotation Yrotation Zrotation
										JOINT newVegas:LeftHandRing3
										{
											OFFSET 3.178268 0.000000 0.000000
											CHANNELS 3 Xrotation Yrotation Zrotation
											End Site
											{
												OFFSET 0.119102 3.170624 0.185394
											}
										}
									}
								}
								JOINT newVegas:LeftHandPinky1
								{
									OFFSET 15.989624 -0.606689 -7.535461
									CHANNELS 3 Xrotation Yrotation Zrotation
									JOINT newVegas:LeftHandPinky2
									{
										OFFSET 2.538986 0.000000 0.000000
										CHANNELS 3 Xrotation Yrotation Zrotation
										JOINT newVegas:LeftHandPinky3
										{
											OFFSET 2.593102 0.000000 0.000000
											CHANNELS 3 Xrotation Yrotation Zrotation
											End Site
											{
												OFFSET -0.150902 2.584198 0.152708
											}
										}
									}
								}
							}
							JOINT newVegas:Left_Sleeve
							{
								OFFSET 0.267448 -0.649796 0.577675
								CHANNELS 3 Xrotation Yrotation Zrotation
								End Site
								{
									OFFSET 0.000000 15.991241 0.000000
								}
							}
							JOINT newVegas:Left_CapeC
							{
								OFFSET 15.715958 -8.608795 -6.935905
								CHANNELS 3 Xrotation Yrotation Zrotation
								JOINT newVegas:Left_CapeC1
								{
									OFFSET 0.000000 -8.688499 0.000000
									CHANNELS 3 Xrotation Yrotation Zrotation
									End Site
									{
										OFFSET 0.000000 8.688499 0.000000
									}
								}
							}
						}
						JOINT newVegas:Left_CapeB
						{
							OFFSET 26.118385 -8.608795 -7.079235
							CHANNELS 3 Xrotation Yrotation Zrotation
							JOINT newVegas:Left_CapeB1
							{
								OFFSET 0.000000 -8.688499 0.000000
								CHANNELS 3 Xrotation Yrotation Zrotation
								End Site
								{
									OFFSET 0.000000 8.688499 0.000000
								}
							}
						}
						JOINT newVegas:Left_CapeA
						{
							OFFSET 5.115639 -8.608795 -10.395809
							CHANNELS 3 Xrotation Yrotation Zrotation
							JOINT newVegas:Left_CapeA1
							{
								OFFSET 0.000000 -8.688499 0.000000
								CHANNELS 3 Xrotation Yrotation Zrotation
								End Site
								{
									OFFSET 0.000000 8.688499 0.000000
								}
							}
						}
					}
				}
				JOINT newVegas:RightShoulder
				{
					OFFSET -15.263000 10.923401 -0.547700
					CHANNELS 3 Xrotation Yrotation Zrotation
					JOINT newVegas:RightArm
					{
						OFFSET -25.438599 -2.830597 -13.032500
						CHANNELS 3 Xrotation Yrotation Zrotation
						JOINT newVegas:RightForeArm
						{
							OFFSET -29.960503 0.000000 0.000000
							CHANNELS 3 Xrotation Yrotation Zrotation
							JOINT newVegas:RightHand
							{
								OFFSET -27.849251 0.000000 0.000000
								CHANNELS 3 Xrotation Yrotation Zrotation
								JOINT newVegas:RightHandThumb1
								{
									OFFSET -4.487587 -3.305161 6.305391
									CHANNELS 3 Xrotation Yrotation Zrotation
									JOINT newVegas:RightHandThumb2
									{
										OFFSET -5.480453 -3.164139 3.164143
										CHANNELS 3 Xrotation Yrotation Zrotation
										JOINT newVegas:RightHandThumb3
										{
											OFFSET -5.159721 -2.978973 2.978967
											CHANNELS 3 Xrotation Yrotation Zrotation
											End Site
											{
												OFFSET -2.494507 5.926697 1.738678
											}
										}
									}
								}
								JOINT newVegas:RightHandIndex1
								{
									OFFSET -18.578728 -0.527832 5.208049
									CHANNELS 3 Xrotation Yrotation Zrotation
									JOINT newVegas:RightHandIndex2
									{
										OFFSET -3.192009 0.000000 0.000000
										CHANNELS 3 Xrotation Yrotation Zrotation
										JOINT newVegas:RightHandIndex3
										{
											OFFSET -3.835129 0.000000 0.000000
											CHANNELS 3 Xrotation Yrotation Zrotation
											End Site
											{
												OFFSET 0.034599 3.816971 0.371180
											}
										}
									}
								}
								JOINT newVegas:RightHandMiddle1
								{
									OFFSET -18.476105 0.000000 0.000000
									CHANNELS 3 Xrotation Yrotation Zrotation
									JOINT newVegas:RightHandMiddle2
									{
										OFFSET -3.324875 0.000000 0.000000
										CHANNELS 3 Xrotation Yrotation Zrotation
										JOINT newVegas:RightHandMiddle3
										{
											OFFSET -4.596550 0.000000 0.000000
											CHANNELS 3 Xrotation Yrotation Zrotation
											End Site
											{
												OFFSET -0.057701 4.578827 0.399218
											}
										}
									}
								}
								JOINT newVegas:RightHandRing1
								{
									OFFSET -17.732719 0.121887 -4.201567
									CHANNELS 3 Xrotation Yrotation Zrotation
									JOINT newVegas:RightHandRing2
									{
										OFFSET -2.733170 0.000000 0.000000
										CHANNELS 3 Xrotation Yrotation Zrotation
										JOINT newVegas:RightHandRing3
										{
											OFFSET -3.178268 0.000000 0.000000
											CHANNELS 3 Xrotation Yrotation Zrotation
											End Site
											{
												OFFSET -0.119102 3.170624 0.185394
											}
										}
									}
								}
								JOINT newVegas:RightHandPinky1
								{
									OFFSET -15.989624 -0.606689 -7.535461
									CHANNELS 3 Xrotation Yrotation Zrotation
									JOINT newVegas:RightHandPinky2
									{
										OFFSET -2.538986 0.000000 0.000000
										CHANNELS 3 Xrotation Yrotation Zrotation
										JOINT newVegas:RightHandPinky3
										{
											OFFSET -2.593102 0.000000 0.000000
											CHANNELS 3 Xrotation Yrotation Zrotation
											End Site
											{
												OFFSET 0.150902 2.584198 0.152708
											}
										}
									}
								}
							}
							JOINT newVegas:Right_CapeC
							{
								OFFSET -15.715958 -8.608795 -6.935905
								CHANNELS 3 Xrotation Yrotation Zrotation
								JOINT newVegas:Right_CapeC1
								{
									OFFSET 0.000000 -8.688499 0.000000
									CHANNELS 3 Xrotation Yrotation Zrotation
									End Site
									{
										OFFSET 0.000000 8.688499 0.000000
									}
								}
							}
							JOINT newVegas:Right_Sleeve
							{
								OFFSET -0.267448 -0.649994 0.577675
								CHANNELS 3 Xrotation Yrotation Zrotation
								End Site
								{
									OFFSET 0.000000 15.991302 0.000000
								}
							}
						}
						JOINT newVegas:Right_CapeA
						{
							OFFSET -5.115540 -8.608795 -10.395824
							CHANNELS 3 Xrotation Yrotation Zrotation
							JOINT newVegas:Right_CapeA1
							{
								OFFSET 0.000000 -8.688499 0.000000
								CHANNELS 3 Xrotation Yrotation Zrotation
								End Site
								{
									OFFSET 0.000000 8.688499 0.000000
								}
							}
						}
						JOINT newVegas:Right_CapeB
						{
							OFFSET -26.118187 -8.608795 -7.079266
							CHANNELS 3 Xrotation Yrotation Zrotation
							JOINT newVegas:Right_CapeB1
							{
								OFFSET 0.000000 -8.688499 0.000000
								CHANNELS 3 Xrotation Yrotation Zrotation
								End Site
								{
									OFFSET 0.000000 8.688499 0.000000
								}
							}
						}
					}
				}
				JOINT newVegas:Left_Collar
				{
					OFFSET 18.625099 8.655502 8.828100
					CHANNELS 3 Xrotation Yrotation Zrotation
					JOINT newVegas:Left_Collar1
					{
						OFFSET 14.783401 10.540405 -1.259500
						CHANNELS 3 Xrotation Yrotation Zrotation
						End Site
						{
							OFFSET 0.000000 18.199875 0.000000
						}
					}
				}
				JOINT newVegas:Collar_Back
				{
					OFFSET 0.000000 15.630707 -20.132601
					CHANNELS 3 Xrotation Yrotation Zrotation
					End Site
					{
						OFFSET 0.000000 22.523010 0.000000
					}
				}
				JOINT newVegas:Left_Peck
				{
					OFFSET 17.239599 -5.132599 25.482599
					CHANNELS 3 Xrotation Yrotation Zrotation
					End Site
					{
						OFFSET 0.000000 22.523010 0.000000
					}
				}
				JOINT newVegas:Right_Peck
				{
					OFFSET -17.239599 -5.132202 25.482599
					CHANNELS 3 Xrotation Yrotation Zrotation
					End Site
					{
						OFFSET 0.000000 22.523010 0.000000
					}
				}
				JOINT newVegas:Right_Collar
				{
					OFFSET -18.625099 8.655792 8.828100
					CHANNELS 3 Xrotation Yrotation Zrotation
					JOINT newVegas:Right_Collar1
					{
						OFFSET -14.783401 10.539993 -1.259500
						CHANNELS 3 Xrotation Yrotation Zrotation
						End Site
						{
							OFFSET 0.000000 18.199631 0.000000
						}
					}
				}
			}
		}
		JOINT newVegas:Belly
		{
			OFFSET 0.000000 -6.540398 9.014299
			CHANNELS 3 Xrotation Yrotation Zrotation
			End Site
			{
				OFFSET 0.000000 11.566666 0.000000
			}
		}
	}
	JOINT newVegas:ElvisFacialAnim_Joint
	{
		OFFSET 1.000000 -95.330101 -8.825800
		CHANNELS 3 Xrotation Yrotation Zrotation
		End Site
		{
			OFFSET 0.000000 35.315800 0.000000
		}
	}
}
MOTION
Frames: 4
Frame Time: 0.016667
-0.419830 88.644699 8.714619 -13.177768 -1.736937 -4.927003 -0.000000 -0.000000 -0.000000 -37.586319 19.084121 12.577157 46.052175 -8.863764 10.644339 1.288242 -7.811377 -1.547599 -0.000000 0.000000 -0.000000 -0.000000 0.000000 -0.000000 -25.452222 -35.170987 -2.460130 39.537462 9.476713 -10.313954 -1.221877 6.610441 -5.475076 0.000000 -0.000002 0.000000 0.000000 0.000001 -0.000000 5.919614 -0.764458 2.897690 9.021538 -0.429999 -0.455594 9.028562 -0.103889 -0.473627 6.200949 0.243891 0.367318 6.200954 0.243890 0.367318 -0.000001 0.000000 0.000000 6.200878 0.243890 0.367319 6.200967 0.243891 0.367319 -0.000000 -0.000000 -0.000000 -0.000001 0.000000 0.000000 0.681782 3.908471 -11.397477 74.323537 -65.285489 4.646514 0.000007 -18.010092 -0.000004 -25.659124 7.272755 -3.768746 21.734278 5.841490 -2.497394 -16.162784 18.936363 19.036138 0.000001 -0.000000 -0.000003 0.152629 1.444577 -12.061579 0.086624 1.091005 -9.079580 -0.000001 -0.000002 -0.000001 0.152221 1.442687 -12.045589 0.086943 1.092929 -9.095550 -0.000001 0.000000 -0.000000 0.152628 1.444567 -12.061580 0.086626 1.091020 -9.079573 0.000000 -0.000001 0.000002 0.985192 5.412813 -11.600960 0.078392 -2.964041 -9.583906 -0.000002 -0.000002 -0.000001 0.000000 0.000000 0.000001 0.000000 0.000000 0.000001 0.000000 0.000000 0.000001 -0.000000 -0.000001 -0.000001 -0.000000 -0.000001 -0.000001 -0.000000 -0.000001 -0.000001 -0.000000 -0.000001 -0.000000 1.412993 0.332768 10.813719 8.850514 40.127191 57.894049 -0.000001 26.003473 0.000001 37.130336 -9.963357 12.845702 -0.389744 -6.638713 -15.665602 8.907259 -22.771349 0.157760 -0.000000 -0.000002 -0.000001 0.174547 -1.551239 12.839280 0.140308 -1.392645 11.506925 0.000001 0.000001 0.000000 0.174548 -1.551238 12.839279 0.140306 -1.392631 11.506927 -0.000001 0.000000 -0.000001 0.174543 -1.551235 12.839281 0.140314 -1.392643 11.506928 0.000000 -0.000001 -0.000000 0.174543 -1.551230 12.839286 0.140303 -1.392644 11.506925 -0.000002 -0.000000 0.000001 0.000000 0.000001 -0.000001 0.000000 0.000001 -0.000001 0.000000 0.000001 -0.000002 -0.000000 0.000000 0.000000 0.000000 0.000000 0.000000 -0.000000 0.000000 0.000000 0.000000 -0.000000 0.000000 0.000000 0.000000 0.000000 0.000000 0.000000 0.000000 0.000000 0.000000 0.000000 0.000000 0.000000 0.000000 0.000000 0.000000 0.000000 0.000000 0.000000 0.000000 0.000000 0.000000 0.000000 -0.000001 0.000000 0.000000 -0.000000 -0.000000 -0.000000 
-0.406538 88.646568 8.714550 -13.181584 -1.775184 -4.911396 -0.000000 -0.000000 -0.000000 -37.568711 19.148203 12.580046 46.036984 -8.865289 10.643709 1.281906 -7.822952 -1.532331 -0.000000 -0.000000 0.000000 -0.000000 0.000000 0.000001 -25.473001 -35.069278 -2.453596 39.551194 9.474104 -10.316354 -1.211364 6.564156 -5.447982 -0.000000 0.000000 0.000000 0.000000 -0.000002 -0.000000 5.918650 -0.759865 2.892235 9.018470 -0.421016 -0.454876 9.025358 -0.094396 -0.473342 6.201418 0.245469 0.362682 6.201438 0.245468 0.362681 -0.000001 -0.000000 -0.000000 6.201492 0.245474 0.362681 6.201405 0.245469 0.362682 0.000001 -0.000000 -0.000000 -0.000001 -0.000000 -0.000000 0.682937 3.924065 -11.425493 74.279694 -65.233873 4.635976 0.000013 -18.066238 0.000021 -25.471780 7.330782 -3.951204 21.734277 5.841489 -2.497395 -16.162784 18.936363 19.036137 0.000000 -0.000001 -0.000001 0.152625 1.444577 -12.061579 0.086623 1.091006 -9.079578 0.000001 0.000001 -0.000001 0.152217 1.442686 -12.045591 0.086938 1.092929 -9.095550 -0.000001 0.000001 0.000000 0.152622 1.444565 -12.061576 0.086626 1.091020 -9.079577 -0.000001 0.000001 0.000001 0.985187 5.412810 -11.600960 0.078391 -2.964038 -9.583908 -0.000000 0.000000 -0.000002 -0.000000 0.000000 -0.000000 -0.000000 0.000000 -0.000000 -0.000000 0.000000 -0.000000 0.000000 0.000000 -0.000001 0.000000 0.000000 -0.000000 0.000000 0.000000 -0.000001 0.000000 0.000000 -0.000000 1.413250 0.336094 10.799356 8.846330 40.120477 57.885027 0.000008 26.006524 -0.000012 37.193040 -9.934876 12.879315 -0.389742 -6.638711 -15.665602 8.907263 -22.771350 0.157758 0.000000 -0.000002 -0.000001 0.174546 -1.551240 12.839276 0.140308 -1.392645 11.506922 -0.000000 0.000001 -0.000000 0.174549 -1.551237 12.839279 0.140307 -1.392631 11.506927 -0.000001 -0.000000 -0.000001 0.174545 -1.551236 12.839283 0.140312 -1.392644 11.506928 0.000001 0.000001 -0.000003 0.174543 -1.551229 12.839286 0.140304 -1.392641 11.506922 0.000001 0.000003 -0.000001 -0.000001 0.000000 -0.000000 -0.000001 -0.000002 0.000000 -0.000001 -0.000000 -0.000000 0.000001 0.000001 0.000001 0.000001 0.000000 0.000001 0.000001 0.000001 0.000001 0.000001 -0.000000 0.000001 0.000001 -0.000000 -0.000000 0.000001 -0.000000 -0.000000 0.000001 -0.000000 -0.000000 0.000001 -0.000000 -0.000000 0.000001 -0.000000 -0.000000 0.000001 -0.000000 -0.000000 0.000001 -0.000000 -0.000000 -0.000001 -0.000000 -0.000000 -0.000000 -0.000000 -0.000000 
-0.394239 88.647903 8.714806 -13.185653 -1.810768 -4.894475 -0.000000 0.000000 -0.000001 -37.550225 19.209303 12.580140 46.022074 -8.866901 10.642925 1.276098 -7.833211 -1.517675 -0.000000 0.000000 0.000000 0.000000 -0.000001 0.000001 -25.497696 -34.972064 -2.452179 39.569075 9.470084 -10.320078 -1.202671 6.527381 -5.421055 -0.000000 -0.000002 -0.000000 -0.000000 -0.000003 -0.000002 5.917790 -0.755593 2.884367 9.015934 -0.413233 -0.454230 9.022702 -0.086282 -0.473039 6.201789 0.247238 0.357882 6.201805 0.247238 0.357881 0.000000 0.000000 0.000000 6.201738 0.247232 0.357883 6.201959 0.247239 0.357881 -0.000001 0.000000 0.000000 0.000000 0.000000 0.000000 0.684059 3.939020 -11.452422 74.202478 -65.177818 4.592540 0.000008 -18.130768 -0.000007 -25.270445 7.391000 -4.135385 21.734278 5.841488 -2.497395 -16.162787 18.936365 19.036135 0.000000 -0.000000 -0.000003 0.152628 1.444577 -12.061579 0.086625 1.091006 -9.079580 -0.000000 0.000000 0.000000 0.152219 1.442687 -12.045588 0.086940 1.092929 -9.095549 0.000002 0.000001 0.000000 0.152626 1.444566 -12.061577 0.086627 1.091022 -9.079573 -0.000003 -0.000000 -0.000001 0.985188 5.412814 -11.600958 0.078391 -2.964037 -9.583907 0.000001 0.000000 -0.000001 0.000000 0.000000 -0.000000 0.000000 0.000000 -0.000000 0.000000 0.000000 -0.000000 -0.000000 0.000000 0.000001 -0.000000 0.000001 0.000001 -0.000000 0.000000 0.000001 -0.000000 -0.000000 0.000002 1.414565 0.343947 10.791923 8.851293 40.106649 57.862726 -0.000005 26.024377 0.000028 37.255772 -9.909328 12.917770 -0.389744 -6.638713 -15.665599 8.907262 -22.771352 0.157760 0.000001 -0.000003 0.000001 0.174546 -1.551240 12.839277 0.140306 -1.392646 11.506923 0.000002 0.000001 0.000000 0.174548 -1.551237 12.839277 0.140304 -1.392631 11.506927 -0.000000 0.000001 -0.000002 0.174544 -1.551235 12.839283 0.140314 -1.392646 11.506927 0.000001 -0.000001 -0.000000 0.174543 -1.551227 12.839284 0.140302 -1.392644 11.506924 0.000000 0.000003 -0.000001 0.000001 0.000001 -0.000000 -0.000000 0.000001 -0.000001 0.000001 0.000001 -0.000001 -0.000003 -0.000001 -0.000000 -0.000002 -0.000001 -0.000001 -0.000003 -0.000001 -0.000000 -0.000002 -0.000001 -0.000001 0.000001 0.000000 -0.000000 0.000001 0.000000 -0.000000 0.000001 0.000000 -0.000000 0.000001 0.000000 -0.000000 0.000001 0.000000 -0.000000 0.000001 0.000000 -0.000000 0.000001 0.000000 -0.000000 -0.000000 -0.000000 -0.000000 -0.000000 0.000000 -0.000001 
-0.383549 88.648376 8.715509 -13.189841 -1.842519 -4.876440 -0.000000 0.000000 -0.000000 -37.531661 19.265255 12.577554 46.008431 -8.868587 10.641950 1.270717 -7.841711 -1.504730 0.000000 -0.000000 0.000000 0.000000 -0.000001 0.000000 -25.526802 -34.882565 -2.457036 39.591881 9.464293 -10.325261 -1.196555 6.503502 -5.395068 -0.000000 -0.000003 0.000000 -0.000001 0.000001 -0.000000 5.916980 -0.751741 2.873851 9.013796 -0.406900 -0.453622 9.020475 -0.079824 -0.472674 6.202234 0.249137 0.353051 6.202239 0.249141 0.353051 0.000003 -0.000000 0.000000 6.202244 0.249138 0.353051 6.202200 0.249138 0.353051 -0.000004 -0.000000 0.000000 0.000003 -0.000000 0.000000 0.685118 3.952922 -11.477673 74.095811 -65.119215 4.518421 -0.000005 -18.201462 0.000005 -25.061807 7.453128 -4.314698 21.734275 5.841491 -2.497393 -16.162780 18.936367 19.036137 0.000001 0.000000 -0.000003 0.152628 1.444577 -12.061578 0.086624 1.091006 -9.079578 -0.000000 -0.000001 0.000002 0.152219 1.442686 -12.045588 0.086941 1.092928 -9.095547 -0.000000 -0.000000 -0.000003 0.152627 1.444566 -12.061580 0.086626 1.091018 -9.079573 0.000001 -0.000001 0.000002 0.985191 5.412813 -11.600959 0.078390 -2.964039 -9.583906 0.000002 0.000004 -0.000001 0.000000 0.000000 0.000000 0.000000 0.000000 0.000000 0.000000 0.000001 0.000000 -0.000000 0.000001 -0.000000 -0.000000 0.000000 -0.000001 -0.000000 0.000001 -0.000000 -0.000000 0.000000 -0.000000 1.416784 0.355709 10.790263 8.863881 40.086578 57.830617 0.000001 26.055128 0.000002 37.317022 -9.887086 12.959785 -0.389744 -6.638712 -15.665601 8.907260 -22.771349 0.157761 0.000002 0.000001 -0.000002 0.174547 -1.551239 12.839275 0.140306 -1.392645 11.506924 0.000000 0.000001 -0.000001 0.174549 -1.551236 12.839275 0.140305 -1.392631 11.506924 -0.000001 0.000001 -0.000002 0.174544 -1.551234 12.839280 0.140311 -1.392641 11.506931 0.000001 -0.000001 -0.000002 0.174543 -1.551232 12.839284 0.140304 -1.392639 11.506923 0.000001 0.000003 -0.000000 -0.000003 0.000001 -0.000001 0.000000 0.000001 -0.000001 -0.000003 0.000001 -0.000002 0.000002 0.000001 0.000001 0.000002 0.000001 0.000001 0.000002 0.000001 0.000001 0.000002 0.000001 0.000001 0.000000 0.000000 -0.000000 0.000000 0.000000 -0.000000 0.000000 0.000000 -0.000000 0.000000 0.000000 -0.000000 0.000000 0.000000 -0.000000 0.000000 0.000000 -0.000000 0.000000 0.000000 -0.000000 0.000001 -0.000000 -0.000000 -0.000000 0.000000 -0.000000 
